<svg width="67" height="33" viewBox="0 0 67 33" fill="none" xmlns="http://www.w3.org/2000/svg">
<path d="M8 3.5V0H13.5V3.5H21V7.5H0V3.5H8Z" fill="#191A20"/>
<path d="M38 5V0H65.5V23H60V5H49H38Z" fill="#191A20"/>
<path d="M67 33H37V30.5V28H67V33Z" fill="#191A20"/>
<path fill-rule="evenodd" clip-rule="evenodd" d="M10.5 10C7 10 1 11 1 21.5C1 32 7 33 10.5 33C14 33 20 32 20 21.5C20 20.9768 19.9851 20.4771 19.9564 20L25.5 18.5V33H31V0H25.5V13L18.896 15C16.9981 10.5406 13.0733 10 10.5 10ZM6 21.5C6 16 9 15 10.5 15C12 15 15 16 15 21.5C15 27 12 28 10.5 28C9 28 6 27 6 21.5Z" fill="#191A20"/>
</svg>
